<?xml version="1.0" encoding="UTF-8" standalone="no"?>
<svg
   xmlns:dc="http://purl.org/dc/elements/1.1/"
   xmlns:cc="http://creativecommons.org/ns#"
   xmlns:rdf="http://www.w3.org/1999/02/22-rdf-syntax-ns#"
   xmlns:svg="http://www.w3.org/2000/svg"
   xmlns="http://www.w3.org/2000/svg"
   xmlns:sodipodi="http://sodipodi.sourceforge.net/DTD/sodipodi-0.dtd"
   xmlns:inkscape="http://www.inkscape.org/namespaces/inkscape"
   inkscape:version="1.0beta2 (2b71d25, 2019-12-03)"
   x="0px"
   y="0px"
   version="1.0"
   viewBox="0 0 286.561 189.832"
   xml:space="preserve"
   sodipodi:docname="Prices.svg"
   enable-background="new 0 0 286.561 189.832"
   id="Layer_1"><defs
   id="defs894" /><sodipodi:namedview
   inkscape:document-rotation="0"
   inkscape:window-height="855"
   inkscape:pageopacity="0"
   showgrid="false"
   inkscape:window-width="1440"
   inkscape:window-x="0"
   inkscape:window-y="23"
   inkscape:cy="94.916"
   inkscape:cx="30.513438"
   inkscape:current-layer="Layer_1"
   borderopacity="1"
   objecttolerance="10"
   inkscape:zoom="1.1306493"
   inkscape:window-maximized="1"
   gridtolerance="10"
   pagecolor="#ffffff"
   guidetolerance="10"
   inkscape:pageshadow="2"
   bordercolor="#666666"
   id="namedview251" />
<g
   style="fill:#ffffff"
   id="eggs">
	<g
   style="fill:#ffffff"
   id="g237">
		<path
   style="fill:#ffffff"
   fill="#231F20"
   d="m145.77 117.79c0-39.792-32.63-117.79-72.884-117.79s-72.886 77.998-72.886 117.79c0 39.787 32.633 72.046 72.886 72.046s72.884-32.27 72.884-72.05z"
   id="path239" />
		<path
   style="fill:#ffffff"
   fill="#FFFFFF"
   d="m72.862 181.99c-19.745-2.327-36.288-9.702-47.887-21.716-11.607-12.01-18.151-28.6-18.136-48.92 0-1.119 0.919-2.029 2.056-2.029 1.134 0 2.053 0.91 2.053 2.029 0.015 19.474 6.194 34.907 17.006 46.11 10.815 11.204 26.381 18.24 45.393 20.49 1.131 0.13 1.935 1.146 1.799 2.259-0.123 1.031-1.01 1.791-2.038 1.791-0.084 0-0.167 0-0.246-0.01z"
   id="path241" />
	</g>
	<g
   style="fill:#ffffff"
   id="g243">
		<path
   style="fill:#ffffff"
   fill="#231F20"
   d="m167.4 189.83c40.253 0 119.16-32.259 119.16-72.046 0-39.788-78.912-72.045-119.16-72.045-40.256 0-72.886 32.257-72.886 72.045-0.004 39.79 32.626 72.05 72.886 72.05z"
   id="path245" />
		<path
   style="fill:#ffffff"
   fill="#FFFFFF"
   d="m102.44 117.76c2.351-19.519 9.813-35.865 21.969-47.331 12.148-11.468 28.937-17.938 49.492-17.928 1.134 0 2.053 0.91 2.053 2.032 0 1.126-0.919 2.032-2.053 2.032-19.704 0.01-35.312 6.121-46.65 16.806-11.333 10.689-18.455 26.078-20.726 44.868-0.136 1.116-1.157 1.911-2.285 1.779-1.046-0.121-1.814-1.002-1.814-2.012 0-0.09 0.01-0.17 0.01-0.25z"
   id="path247" />
	</g>
	<path
   style="fill:#ffffff"
   fill="#FFFFFF"
   stroke-width=".2556"
   stroke-linecap="round"
   stroke="#FFFFFF"
   d="m93.991 116.78c0-19.338 7.926-36.829 20.746-49.509 4.621-4.563 9.873-8.495 15.616-11.665-0.277-0.624-0.557-1.245-0.837-1.864-0.282-0.618-0.571-1.239-0.859-1.854-23.12 12.615-38.78 36.944-38.78 64.892 0 22.976 10.211 45.027 26.822 58.613 0.56-0.424 1.11-0.856 1.649-1.296 0.542-0.436 1.081-0.875 1.608-1.328-1.95-1.563-3.449-4.733-5.223-6.485-12.82-12.67-20.749-30.16-20.749-49.5z"
   stroke-linejoin="round"
   id="path249" />
</g>
<metadata
   id="metadata891"><rdf:RDF><cc:Work><dc:format>image/svg+xml</dc:format><dc:type
         rdf:resource="http://purl.org/dc/dcmitype/StillImage" /><cc:license
         rdf:resource="http://creativecommons.org/licenses/publicdomain/" /><dc:publisher><cc:Agent
           rdf:about="http://openclipart.org/"><dc:title>Openclipart</dc:title></cc:Agent></dc:publisher><dc:title></dc:title><dc:date>2012-05-07T12:00:24</dc:date><dc:description>Eggs.</dc:description><dc:source>https://openclipart.org/detail/169910/kitchen-icon---eggs-by-studiofibonacci</dc:source><dc:creator><cc:Agent><dc:title>StudioFibonacci</dc:title></cc:Agent></dc:creator><dc:subject><rdf:Bag><rdf:li>egg</rdf:li><rdf:li>icon</rdf:li><rdf:li>kitchen</rdf:li><rdf:li>silhouette</rdf:li></rdf:Bag></dc:subject></cc:Work><cc:License
       rdf:about="http://creativecommons.org/licenses/publicdomain/"><cc:permits
         rdf:resource="http://creativecommons.org/ns#Reproduction" /><cc:permits
         rdf:resource="http://creativecommons.org/ns#Distribution" /><cc:permits
         rdf:resource="http://creativecommons.org/ns#DerivativeWorks" /></cc:License></rdf:RDF></metadata><g
   style="fill:#ffffff"
   transform="matrix(0.02897322,0,0,-0.03697993,109.13583,141.45324)"
   id="g1459"><path
     style="fill:#ffffff"
     inkscape:connector-curvature="0"
     d="m 2420,5575 c 0,-210 -4,-325 -10,-325 -5,0 -10,-7 -10,-15 0,-12 -14,-15 -68,-15 -56,0 -70,-3 -82,-20 -8,-11 -22,-20 -32,-20 -10,0 -18,-4 -18,-10 0,-5 -24,-10 -53,-10 -41,0 -56,-4 -67,-20 -9,-13 -26,-20 -47,-20 -18,0 -33,-5 -33,-11 0,-19 -28,-39 -54,-39 -14,0 -26,-4 -26,-10 0,-5 -7,-10 -15,-10 -8,0 -15,-4 -15,-10 0,-5 -9,-10 -20,-10 -11,0 -20,-4 -20,-10 0,-5 -9,-10 -20,-10 -11,0 -20,-5 -20,-11 0,-17 -27,-39 -47,-39 -10,0 -25,-9 -33,-20 -8,-11 -22,-20 -32,-20 -11,0 -18,-7 -18,-20 0,-11 -7,-20 -15,-20 -8,0 -15,-7 -15,-15 0,-8 -8,-15 -18,-15 -10,0 -24,-9 -32,-20 -8,-11 -22,-20 -32,-20 -11,0 -18,-7 -18,-20 0,-11 -7,-20 -15,-20 -9,0 -15,-9 -15,-21 0,-12 -13,-34 -30,-49 -16,-15 -30,-35 -30,-44 0,-9 -4,-16 -10,-16 -5,0 -10,-7 -10,-15 0,-8 -4,-15 -10,-15 -5,0 -10,-9 -10,-20 0,-11 -7,-20 -15,-20 -8,0 -15,-9 -15,-20 0,-11 -4,-20 -10,-20 -5,0 -10,-6 -10,-13 0,-7 -9,-19 -20,-27 -14,-10 -20,-26 -20,-52 0,-21 -4,-38 -10,-38 -5,0 -10,-11 -10,-25 0,-16 -6,-25 -15,-25 -11,0 -15,-12 -15,-45 0,-25 -4,-45 -10,-45 -5,0 -10,-13 -10,-30 0,-16 -4,-30 -10,-30 -6,0 -10,-43 -10,-110 0,-67 -4,-110 -10,-110 -6,0 -10,-35 -10,-85 0,-50 4,-85 10,-85 6,0 10,-43 10,-110 0,-67 4,-110 10,-110 6,0 10,-20 10,-45 0,-25 5,-45 10,-45 6,0 10,-20 10,-45 0,-33 4,-45 15,-45 8,0 15,-9 15,-20 0,-11 5,-20 10,-20 6,0 10,-13 10,-30 0,-16 5,-30 10,-30 6,0 10,-7 10,-15 0,-8 5,-15 10,-15 6,0 10,-12 10,-26 0,-26 20,-54 39,-54 6,0 11,-11 11,-25 0,-14 5,-25 10,-25 6,0 10,-7 10,-16 0,-9 14,-29 30,-44 17,-15 30,-37 30,-49 0,-16 6,-21 25,-21 18,0 25,-5 25,-20 0,-12 7,-20 16,-20 15,0 44,-23 44,-35 0,-13 50,-55 66,-55 9,0 29,-14 44,-30 15,-17 37,-30 49,-30 12,0 21,-6 21,-15 0,-8 9,-15 20,-15 13,0 20,-7 20,-20 0,-16 7,-20 30,-20 17,0 30,-4 30,-10 0,-5 7,-10 15,-10 8,0 15,-4 15,-10 0,-5 14,-10 30,-10 20,0 30,-5 30,-15 0,-9 9,-15 25,-15 14,0 25,-4 25,-10 0,-5 14,-10 30,-10 17,0 30,-4 30,-10 0,-5 9,-10 20,-10 11,0 20,-4 20,-10 0,-5 20,-10 45,-10 25,0 45,-4 45,-10 0,-5 16,-10 35,-10 19,0 35,-4 35,-10 0,-5 14,-10 30,-10 20,0 30,-5 30,-15 0,-9 9,-15 25,-15 14,0 25,-4 25,-10 0,-5 14,-10 30,-10 17,0 30,-4 30,-10 0,-6 28,-10 65,-10 37,0 65,-4 65,-10 0,-5 11,-10 25,-10 14,0 25,-4 25,-10 0,-5 18,-10 40,-10 29,0 40,-4 40,-15 0,-11 12,-15 45,-15 25,0 45,-4 45,-10 0,-5 25,-10 55,-10 30,0 55,-4 55,-10 0,-5 25,-10 55,-10 30,0 55,-4 55,-10 0,-5 9,-10 20,-10 11,0 20,-4 20,-10 0,-5 16,-10 35,-10 19,0 35,-4 35,-10 0,-5 18,-10 40,-10 29,0 40,-4 40,-15 0,-11 12,-15 45,-15 25,0 45,-4 45,-10 0,-5 9,-10 20,-10 11,0 20,-4 20,-10 0,-5 10,-10 23,-10 12,0 29,-9 37,-20 9,-13 26,-20 47,-20 18,0 33,-4 33,-10 0,-5 9,-10 20,-10 11,0 20,-7 20,-15 0,-8 5,-15 10,-15 6,0 10,-9 10,-20 0,-11 5,-20 10,-20 6,0 10,-9 10,-20 0,-11 5,-20 10,-20 6,0 10,-33 10,-80 0,-47 -4,-80 -10,-80 -5,0 -10,-13 -10,-28 0,-16 -8,-34 -20,-42 -11,-8 -20,-18 -20,-23 0,-18 -30,-37 -59,-37 -17,0 -31,-4 -31,-10 0,-5 -20,-10 -45,-10 -25,0 -45,-4 -45,-10 0,-6 -35,-10 -85,-10 -50,0 -85,-4 -85,-10 0,-6 -53,-10 -140,-10 -87,0 -140,4 -140,10 0,6 -25,10 -55,10 -30,0 -55,5 -55,10 0,6 -28,10 -65,10 -37,0 -65,4 -65,10 0,6 -25,10 -55,10 -30,0 -55,5 -55,10 0,6 -16,10 -35,10 -24,0 -35,5 -35,15 0,8 -9,15 -20,15 -11,0 -20,5 -20,10 0,6 -20,10 -45,10 -25,0 -45,5 -45,10 0,6 -9,10 -20,10 -11,0 -20,5 -20,10 0,6 -11,10 -25,10 -14,0 -25,5 -25,10 0,6 -13,10 -30,10 -20,0 -30,5 -30,15 0,10 -10,15 -33,15 -21,0 -38,7 -47,20 -10,14 -26,20 -52,20 -21,0 -38,5 -38,10 0,6 -6,10 -13,10 -7,0 -19,9 -27,20 -8,11 -22,20 -32,20 -10,0 -18,5 -18,11 0,21 -29,39 -65,39 -38,0 -65,18 -65,44 0,10 -9,16 -25,16 -16,0 -25,6 -25,15 0,10 -10,15 -30,15 -24,0 -30,-4 -30,-21 0,-22 -22,-49 -39,-49 -6,0 -11,-4 -11,-10 0,-5 -9,-10 -20,-10 -16,0 -20,-7 -20,-35 0,-19 -4,-35 -10,-35 -5,0 -10,-9 -10,-20 0,-13 -7,-20 -20,-20 -17,0 -20,-7 -20,-45 0,-25 -5,-45 -10,-45 -19,0 -60,-48 -60,-70 0,-11 -4,-20 -10,-20 -5,0 -10,-7 -10,-15 0,-18 -43,-65 -60,-65 -5,0 -10,-11 -10,-25 0,-14 -4,-25 -10,-25 -5,0 -10,-9 -10,-20 0,-13 -7,-20 -20,-20 -16,0 -20,-7 -20,-31 0,-30 -19,-59 -39,-59 -6,0 -11,-9 -11,-20 0,-11 -4,-20 -10,-20 -5,0 -10,-9 -10,-20 0,-11 -4,-20 -10,-20 -5,0 -10,-7 -10,-15 0,-8 -4,-15 -10,-15 -5,0 -10,-9 -10,-20 0,-11 -4,-20 -10,-20 -5,0 -10,-9 -10,-20 0,-11 -4,-20 -10,-20 -5,0 -10,-7 -10,-15 0,-8 -7,-15 -15,-15 -8,0 -15,-8 -15,-18 0,-10 -9,-24 -20,-32 -39,-28 -18,-100 29,-100 12,0 21,-4 21,-10 0,-5 9,-10 20,-10 11,0 20,-4 20,-10 0,-5 7,-10 16,-10 18,0 44,-23 44,-39 0,-6 11,-11 25,-11 14,0 25,-4 25,-10 0,-5 9,-10 20,-10 11,0 20,-4 20,-10 0,-5 11,-10 25,-10 14,0 25,-4 25,-10 0,-5 9,-10 20,-10 11,0 20,-4 20,-10 0,-5 9,-10 20,-10 11,0 20,-4 20,-10 0,-5 16,-10 35,-10 24,0 35,-5 35,-15 0,-8 9,-15 20,-15 11,0 20,-4 20,-10 0,-5 9,-10 20,-10 11,0 20,-4 20,-10 0,-5 16,-10 35,-10 19,0 35,-4 35,-10 0,-5 16,-10 35,-10 19,0 35,-4 35,-10 0,-5 14,-10 30,-10 20,0 30,-5 30,-15 0,-8 9,-15 20,-15 11,0 20,-4 20,-10 0,-5 16,-10 35,-10 19,0 35,-4 35,-10 0,-5 25,-10 55,-10 30,0 55,-4 55,-10 0,-5 9,-10 20,-10 11,0 20,-4 20,-10 0,-5 20,-10 45,-10 25,0 45,-4 45,-10 0,-5 20,-10 45,-10 33,0 45,-4 45,-15 0,-11 11,-15 40,-15 22,0 40,-4 40,-10 0,-5 11,-10 25,-10 h 25 V 100 h 1240 v 311 c 0,331 1,339 49,339 12,0 21,6 21,15 0,10 10,15 30,15 17,0 30,5 30,10 0,6 20,10 45,10 25,0 45,5 45,10 0,6 14,10 30,10 17,0 30,5 30,10 0,6 16,10 35,10 19,0 35,5 35,10 0,6 9,10 20,10 11,0 20,5 20,10 0,6 16,10 35,10 24,0 35,5 35,15 0,8 9,15 20,15 11,0 20,5 20,10 0,6 9,10 20,10 11,0 20,5 20,10 0,6 9,10 20,10 22,0 70,41 70,60 0,5 14,10 31,10 23,0 40,10 69,40 21,22 46,40 55,40 17,0 45,23 45,37 0,5 9,15 20,23 11,8 20,21 20,30 0,9 9,22 20,30 11,8 20,20 20,27 0,7 5,13 10,13 15,0 60,47 60,62 0,8 9,20 20,28 11,8 20,25 20,37 0,14 6,23 15,23 8,0 15,9 15,20 0,11 5,20 10,20 6,0 10,11 10,25 0,14 5,25 10,25 6,0 10,9 10,20 0,11 5,20 10,20 6,0 10,9 10,20 0,11 5,20 10,20 6,0 10,11 10,25 0,14 5,25 10,25 6,0 10,18 10,40 0,29 4,40 15,40 12,0 15,13 15,55 0,30 5,55 10,55 6,0 10,25 10,55 0,30 5,55 10,55 6,0 10,68 10,185 0,117 -4,185 -10,185 -6,0 -10,32 -10,75 0,43 -4,75 -10,75 -5,0 -10,20 -10,45 0,33 -4,45 -15,45 -10,0 -15,11 -15,35 0,19 -4,35 -10,35 -5,0 -10,9 -10,20 0,11 -4,20 -10,20 -5,0 -10,16 -10,35 0,19 -4,35 -10,35 -5,0 -10,9 -10,20 0,11 -4,20 -10,20 -5,0 -10,14 -10,31 0,27 -19,59 -35,59 -19,0 -55,52 -55,80 0,23 -4,30 -20,30 -11,0 -20,5 -20,10 0,6 -5,10 -10,10 -19,0 -60,48 -60,70 0,16 -6,20 -30,20 -23,0 -30,4 -30,20 0,11 -7,20 -15,20 -8,0 -15,9 -15,20 0,13 -7,20 -20,20 -11,0 -20,5 -20,10 0,6 -9,10 -20,10 -11,0 -20,7 -20,15 0,10 -11,15 -35,15 -28,0 -35,4 -35,20 0,16 -7,20 -30,20 -16,0 -30,5 -30,10 0,6 -7,10 -15,10 -8,0 -15,5 -15,10 0,6 -9,10 -20,10 -11,0 -20,7 -20,15 0,10 -10,15 -30,15 -16,0 -30,5 -30,10 0,6 -11,10 -25,10 -14,0 -25,5 -25,10 0,6 -9,10 -20,10 -11,0 -20,5 -20,10 0,6 -16,10 -35,10 -28,0 -35,4 -35,20 0,18 -7,20 -65,20 -40,0 -65,4 -65,11 0,19 -28,39 -54,39 -14,0 -26,5 -26,10 0,6 -16,10 -35,10 -19,0 -35,5 -35,10 0,6 -16,10 -35,10 -19,0 -35,5 -35,10 0,6 -18,10 -40,10 -29,0 -40,4 -40,15 0,11 -12,15 -45,15 -25,0 -45,5 -45,10 0,6 -20,10 -45,10 -25,0 -45,5 -45,10 0,6 -18,10 -40,10 -22,0 -40,5 -40,10 0,6 -25,10 -55,10 -30,0 -55,5 -55,10 0,6 -20,10 -45,10 -25,0 -45,5 -45,10 0,6 -20,10 -45,10 -33,0 -45,4 -45,15 0,10 -10,15 -30,15 -16,0 -30,5 -30,10 0,6 -16,10 -35,10 -19,0 -35,5 -35,10 0,6 -13,10 -30,10 -16,0 -30,5 -30,10 0,6 -7,10 -15,10 -8,0 -15,5 -15,10 0,6 -22,10 -50,10 -47,0 -50,2 -50,25 0,18 -5,25 -20,25 -27,0 -90,63 -90,90 0,11 -7,20 -15,20 -11,0 -15,12 -15,50 0,38 4,50 15,50 9,0 15,9 15,25 0,14 5,25 10,25 6,0 10,14 10,30 0,17 5,30 10,30 6,0 10,7 10,15 0,8 9,15 20,15 11,0 20,5 20,10 0,6 11,10 25,10 14,0 25,5 25,10 0,6 14,10 30,10 17,0 30,5 30,10 0,6 87,10 240,10 153,0 240,-4 240,-10 0,-6 32,-10 75,-10 43,0 75,-4 75,-10 0,-5 20,-10 45,-10 25,0 45,-4 45,-10 0,-5 25,-10 55,-10 42,0 55,-3 55,-15 0,-8 9,-15 20,-15 11,0 20,-4 20,-10 0,-5 11,-10 25,-10 14,0 25,-4 25,-10 0,-5 14,-10 30,-10 17,0 30,-4 30,-10 0,-5 16,-10 35,-10 19,0 35,-4 35,-10 0,-5 9,-10 20,-10 11,0 20,-5 20,-11 0,-17 27,-39 49,-39 12,0 21,-4 21,-10 0,-5 13,-10 28,-10 16,0 34,-8 42,-20 8,-11 20,-20 27,-20 7,0 13,-4 13,-10 0,-5 14,-10 30,-10 20,0 30,-5 30,-15 0,-9 9,-15 23,-15 12,0 29,-9 37,-20 8,-11 21,-20 30,-20 9,0 22,-9 30,-20 9,-13 26,-20 47,-20 32,0 33,1 33,40 0,22 5,40 10,40 6,0 10,7 10,15 0,8 5,15 10,15 6,0 10,9 10,20 0,15 7,20 25,20 18,0 25,5 25,20 0,11 5,20 10,20 6,0 10,11 10,25 0,14 5,25 10,25 6,0 10,8 10,18 0,10 9,24 20,32 11,8 20,23 20,33 0,20 22,47 39,47 6,0 11,8 11,18 0,10 9,24 20,32 11,8 20,25 20,37 0,13 5,23 10,23 6,0 10,8 10,18 0,10 9,24 20,32 11,8 20,25 20,37 0,13 5,23 10,23 21,0 60,49 60,75 0,14 5,25 10,25 6,0 10,7 10,15 0,8 5,15 10,15 6,0 10,9 10,20 0,11 5,20 11,20 16,0 39,26 39,45 0,9 14,30 30,45 18,17 30,38 30,54 0,14 5,26 10,26 6,0 10,9 10,21 0,22 -22,49 -40,49 -14,0 -60,46 -60,60 0,5 -11,10 -25,10 -14,0 -25,5 -25,10 0,6 -9,10 -20,10 -11,0 -20,5 -20,10 0,6 -11,10 -25,10 -14,0 -25,5 -25,10 0,6 -8,10 -18,10 -10,0 -24,9 -32,20 -9,13 -26,20 -47,20 -18,0 -33,5 -33,11 0,16 -26,39 -44,39 -9,0 -16,5 -16,10 0,6 -9,10 -20,10 -11,0 -20,5 -20,10 0,6 -11,10 -25,10 -14,0 -25,5 -25,10 0,6 -20,10 -45,10 -33,0 -45,4 -45,15 0,8 -9,15 -20,15 -11,0 -20,5 -20,10 0,6 -13,10 -30,10 -16,0 -30,5 -30,10 0,6 -25,10 -55,10 -30,0 -55,5 -55,10 0,6 -11,10 -25,10 -14,0 -25,5 -25,10 0,6 -25,10 -55,10 -30,0 -55,5 -55,10 0,6 -9,10 -20,10 -11,0 -20,7 -20,15 0,12 -14,15 -65,15 h -65 v 650 H 2420 Z"
     id="path1457" /></g></svg>
