<?xml version="1.0" encoding="UTF-8" standalone="no"?>
<svg
   xmlns:dc="http://purl.org/dc/elements/1.1/"
   xmlns:cc="http://creativecommons.org/ns#"
   xmlns:rdf="http://www.w3.org/1999/02/22-rdf-syntax-ns#"
   xmlns:svg="http://www.w3.org/2000/svg"
   xmlns="http://www.w3.org/2000/svg"
   xmlns:sodipodi="http://sodipodi.sourceforge.net/DTD/sodipodi-0.dtd"
   xmlns:inkscape="http://www.inkscape.org/namespaces/inkscape"
   inkscape:version="1.0beta2 (2b71d25, 2019-12-03)"
   sodipodi:docname="Units.svg"
   id="svg857"
   preserveAspectRatio="xMidYMid meet"
   viewBox="0 0 1280.000000 1199.000000"
   height="1199.000000pt"
   width="1280.000000pt"
   version="1.0">
  <defs
     id="defs861" />
  <sodipodi:namedview
     inkscape:current-layer="svg857"
     inkscape:window-maximized="1"
     inkscape:window-y="23"
     inkscape:window-x="1440"
     inkscape:cy="799.33333"
     inkscape:cx="853.33333"
     inkscape:zoom="0.40471226"
     showgrid="false"
     id="namedview859"
     inkscape:window-height="1035"
     inkscape:window-width="1865"
     inkscape:pageshadow="2"
     inkscape:pageopacity="0"
     guidetolerance="10"
     gridtolerance="10"
     objecttolerance="10"
     borderopacity="1"
     inkscape:document-rotation="0"
     bordercolor="#666666"
     pagecolor="#ffffff" />
  <metadata
     id="metadata851">
Created by potrace 1.15, written by Peter Selinger 2001-2017
<rdf:RDF>
  <cc:Work
     rdf:about="">
    <dc:format>image/svg+xml</dc:format>
    <dc:type
       rdf:resource="http://purl.org/dc/dcmitype/StillImage" />
    <dc:title></dc:title>
  </cc:Work>
</rdf:RDF>
</metadata>
  <path
     d="m 637.6,4.2 c -0.3,2.4 -2.2,23.9 -4.1,47.8 -7.4,91.9 -11.6,117.7 -20.8,127.7 -1.1,1.3 -2.4,2.3 -2.9,2.3 -0.5,0 -4.3,-3.3 -8.6,-7.3 -11.1,-10.4 -15.9,-14.1 -25.1,-19.6 -33.7,-20.3 -83.5,-26.2 -140.1,-16.5 -26.5,4.5 -50.2,10.9 -111.2,29.8 -30.7,9.6 -47.2,14.2 -65.8,18.6 -28.4,6.6 -63.3,11 -71.7,8.8 -4,-1 -4.6,-0.9 -6.8,1.2 -1.3,1.2 -2.7,3.4 -3,4.9 -0.5,2.3 3.5,46.8 5,55.8 l 0.6,3.3 h 17.4 c 9.6,0 17.5,0.2 17.5,0.5 0,0.3 -2.3,6.7 -5.1,14.2 -6.3,17 -48.3,131.1 -58.9,159.8 -7.7,21.1 -34.4,93.3 -85,230.5 -14.9,40.4 -32.1,87.1 -38.2,103.8 L 19.6,800 H 9.8 c -6.1,0 -9.8,0.4 -9.8,1 0,0.6 2.2,4.3 4.9,8.3 19.1,28.3 54.8,56 103.1,80.1 18.2,9.1 33.1,14.7 51.5,19.4 45.3,11.8 95.9,12 144,0.7 54.2,-12.8 92.7,-36.9 152.9,-95.5 l 13.8,-13.5 -11.7,-0.5 -11.7,-0.5 -11.5,-31 C 418.1,721.7 376.1,607.9 340.2,510.5 314.5,440.7 281.9,352.4 251,268.7 l -2.9,-7.7 h 187.1 187.1 l -0.7,19.2 c -0.4,10.6 -2,58.2 -3.6,105.8 -9.9,289.4 -11.6,339.1 -16.1,467 -1.7,48.7 -3.1,98.6 -3.2,111 -0.1,22.3 -0.1,22.7 3.6,41.5 6.1,30.6 6.2,46.6 0.1,58.7 -7.1,14.1 -30.6,34.5 -58.9,51.3 -51.1,30.2 -140.1,60.2 -234.7,79.1 -1.9,0.4 -2.8,1.2 -2.8,2.5 0,1.9 5.3,1.9 334,1.9 328.7,0 334,0 334,-1.9 0,-1.3 -0.9,-2.1 -2.7,-2.5 -100.1,-20 -188.7,-50.7 -241.4,-83.7 -25.4,-15.8 -45,-34.3 -51.6,-48.5 -2.5,-5.3 -2.8,-7.3 -3.1,-18.4 -0.3,-11.3 0,-14.4 3.7,-33 6.5,-33.1 6.3,-29.7 4.1,-92.8 C 681.9,887 679.7,821.7 678,773 676.3,724.3 674.1,658.8 673,627.5 670,539.7 665.1,397.4 662.7,326 l -2.2,-64.5 184.4,-0.3 c 101.4,-0.1 184.6,-0.1 184.7,0.1 0.2,0.1 -9.2,25.9 -20.7,57.2 -29.1,79 -65.8,178.6 -97.9,265.5 -14.9,40.4 -38.4,104.1 -52.2,141.5 -13.7,37.4 -25.6,69.4 -26.3,71.2 l -1.4,3.2 -10.4,0.3 -10.4,0.3 6.8,9.5 c 19.2,26.7 44.6,47.5 87.1,71.4 17,9.5 26.9,14.1 43.1,20 37.1,13.4 78.8,18.9 119.4,15.5 25.9,-2.1 54.6,-7.9 76.3,-15.4 29.8,-10.4 63.4,-31.4 95.5,-59.8 16.6,-14.8 41.5,-38.9 41.5,-40.3 0,-1 -2.4,-1.4 -10.7,-1.6 l -10.8,-0.3 -14.8,-40 c -8.1,-22 -26.2,-71.1 -40.1,-109 -25.8,-69.8 -59,-159.8 -104.8,-284 -13.8,-37.4 -27.9,-75.7 -31.3,-85 -3.5,-9.4 -6.6,-17.8 -7,-18.8 -0.7,-1.6 0.6,-1.7 17.8,-1.7 h 18.6 l 0.5,-3.3 c 1.6,-9.7 5.6,-54 5,-56.1 -0.3,-1.3 -1.6,-3.4 -2.9,-4.6 -2.2,-2 -2.8,-2.2 -6.6,-1.2 -3.3,0.8 -6.8,0.6 -17.8,-1.3 -29.5,-5.1 -47.8,-9.6 -102.6,-25 -65.7,-18.5 -89.8,-24.4 -117,-28.9 -28.3,-4.7 -43.7,-5.9 -70,-5.3 -25.8,0.5 -38.6,2.1 -53.3,6.3 -20.4,5.9 -33,13.4 -49.9,29.6 -6.1,6 -11.5,10.8 -12,10.8 -1.4,0 -4.8,-4 -6.7,-7.7 -3,-5.9 -6.6,-20.4 -8.6,-34.6 C 652,118.2 650.3,99.7 644.5,28 642.4,1.4 642.2,0 640,0 c -1.3,0 -1.9,1.1 -2.4,4.2 z M 245.8,320 c 11.8,32 35.8,97.3 89.2,242 50.3,136.3 77.2,209.4 82.5,223.7 l 5.3,14.3 H 233.4 C 129.2,800 44,799.9 44,799.7 c 0,-0.4 -4.2,11 89,-241.7 14.9,-40.4 38.3,-103.9 52,-141 22.5,-61.1 46.2,-125.3 47.5,-128.9 0.3,-0.8 0.7,-1.2 0.9,-1 0.2,0.2 5.8,15 12.4,32.9 z m 813.9,5.8 c 7.8,21.3 26.4,71.8 41.3,112.2 44.8,121.6 75.5,204.7 102.5,278 14,38.2 26.7,72.3 28,75.8 1.4,3.4 2.5,6.7 2.5,7.2 0,0.7 -65,1 -189,1 -103.9,0 -189,-0.3 -189,-0.6 0,-0.7 5.3,-15.2 53,-144.4 14.9,-40.4 38.3,-103.9 52,-141 13.7,-37.1 37.1,-100.6 52.1,-141 14.9,-40.4 28.1,-76.3 29.2,-79.8 1.2,-3.4 2.4,-6.2 2.7,-6.2 0.3,0 6.9,17.5 14.7,38.8 z"
     id="path853"
     inkscape:connector-curvature="0"
     style="fill:#ffffff;stroke:none;stroke-width:0.1;fill-opacity:1" />
</svg>
